<svg width="24" height="21" viewBox="0 0 24 21" fill="none" xmlns="http://www.w3.org/2000/svg">
<g clip-path="url(#clip0_101_988)">
<path d="M3.19043 8.55259V20.2766H20.4603V8.55259L11.8254 3.08301L3.19043 8.55259ZM19.1463 18.9579H4.51031V9.27882L11.8254 4.64457L19.1405 9.27882L19.1463 18.9579Z" fill="black"/>
<path d="M11.8253 0.276367L0.75 7.29344L1.45628 8.408L11.8253 1.83793L22.1942 8.408L22.9005 7.29344L11.8253 0.276367Z" fill="black"/>
<path d="M11.9966 16.2099C11.1648 16.211 10.3565 15.9335 9.70077 15.4218C9.045 14.91 8.57945 14.1934 8.37836 13.3863C8.17726 12.5792 8.2522 11.7279 8.59122 10.9683C8.93025 10.2087 9.51383 9.58452 10.2489 9.19522C10.984 8.80592 11.8283 8.67395 12.6471 8.82035C13.466 8.96676 14.2122 9.3831 14.7669 10.003C15.3215 10.6229 15.6526 11.4107 15.7075 12.2407C15.7623 13.0707 15.5376 13.8951 15.0693 14.5826L15.7192 15.2326C16.412 14.2916 16.7234 13.1235 16.591 11.9625C16.4586 10.8016 15.8922 9.73355 15.0054 8.97269C14.1186 8.21183 12.9769 7.81436 11.8093 7.85998C10.6417 7.9056 9.53451 8.39095 8.70976 9.21869C7.88501 10.0464 7.40368 11.1554 7.36228 12.3231C7.32089 13.4909 7.72249 14.6311 8.48656 15.5152C9.25063 16.3992 10.3207 16.9618 11.4821 17.09C12.6435 17.2181 13.8105 16.9025 14.749 16.2063L14.099 15.5564C13.4808 15.9826 12.7475 16.2105 11.9966 16.2099Z" fill="#EA2227"/>
<path d="M11.9963 14.3553C11.5953 14.3561 11.2047 14.2275 10.8826 13.9886C10.5605 13.7498 10.3239 13.4135 10.2081 13.0295C10.0923 12.6456 10.1033 12.2346 10.2396 11.8574C10.3759 11.4803 10.6302 11.1572 10.9647 10.936C11.2992 10.7148 11.6961 10.6074 12.0965 10.6297C12.4969 10.652 12.8795 10.8028 13.1873 11.0597C13.4952 11.3167 13.7121 11.666 13.8057 12.056C13.8993 12.4459 13.8646 12.8556 13.7069 13.2243L14.3838 13.9001C14.7268 13.3181 14.8454 12.6309 14.7176 11.9675C14.5898 11.3042 14.2243 10.7103 13.6896 10.2973C13.155 9.88434 12.488 9.6807 11.8139 9.72462C11.1398 9.76854 10.5049 10.057 10.0283 10.5358C9.55179 11.0147 9.2664 11.651 9.22574 12.3253C9.18507 12.9996 9.39192 13.6656 9.80746 14.1983C10.223 14.7309 10.8186 15.0936 11.4826 15.2182C12.1466 15.3428 12.8332 15.2208 13.4136 14.8751L12.739 14.1993C12.5049 14.3022 12.252 14.3553 11.9963 14.3553Z" fill="#EA2227"/>
<path d="M18.0774 17.3871L17.7618 17.0621L16.6344 15.9182C16.6263 15.9087 16.6158 15.9016 16.604 15.8977C16.5923 15.8938 16.5796 15.8932 16.5675 15.8959C16.3329 15.9287 16.1076 15.9593 15.8788 15.9933C15.867 15.9953 15.8549 15.9941 15.8437 15.9898C15.8325 15.9854 15.8228 15.9781 15.8155 15.9686L15.1045 15.2577L14.7115 14.8646L14.3137 14.4728L14.1565 14.3156L13.9852 14.1443L13.7635 13.9225L13.3705 13.5342L12.8237 12.9886C12.8191 12.9854 12.8152 12.9812 12.8122 12.9764C12.8093 12.9716 12.8073 12.9663 12.8064 12.9607C12.8055 12.9551 12.8058 12.9494 12.8071 12.9439C12.8085 12.9385 12.811 12.9333 12.8143 12.9288C12.9034 12.7625 12.939 12.5729 12.9164 12.3856C12.8928 12.189 12.8068 12.0052 12.6712 11.861C12.5355 11.7168 12.3572 11.6199 12.1624 11.5844C11.9676 11.5489 11.7666 11.5767 11.5887 11.6637C11.4109 11.7507 11.2656 11.8924 11.1742 12.068C11.0827 12.2436 11.0499 12.4439 11.0805 12.6395C11.1111 12.8351 11.2035 13.0158 11.3443 13.155C11.485 13.2943 11.6667 13.3848 11.8626 13.4134C12.0585 13.4419 12.2584 13.4069 12.433 13.3136C12.4382 13.3095 12.4442 13.3065 12.4506 13.3047C12.457 13.3029 12.4637 13.3025 12.4702 13.3033C12.4768 13.3042 12.4831 13.3064 12.4888 13.3098C12.4946 13.3132 12.4995 13.3177 12.5034 13.323L13.0326 13.8521C13.164 13.9835 13.2942 14.1149 13.4256 14.2452C13.557 14.3754 13.6872 14.508 13.8186 14.6382L13.9758 14.7954C14.1072 14.9268 14.2375 15.0582 14.3689 15.1884L14.7619 15.5826L15.4893 16.3089C15.5005 16.3186 15.5089 16.3311 15.5136 16.3451C15.5184 16.3591 15.5193 16.3742 15.5163 16.3887C15.4834 16.6151 15.4529 16.8415 15.4224 17.0679C15.4219 17.0833 15.4269 17.0983 15.4365 17.1102L16.0501 17.7332L16.7951 18.4876L16.9124 18.6049C16.9124 18.5908 16.9124 18.5826 16.9195 18.5755C16.964 18.247 17.0098 17.9185 17.0532 17.59C17.0532 17.5666 17.0638 17.556 17.0896 17.5525C17.289 17.5267 17.4885 17.4974 17.6868 17.4692L18.0939 17.4129L18.0774 17.3871Z" fill="black"/>
</g>
<defs>
<clipPath id="clip0_101_988">
<rect width="22.5" height="20" fill="white" transform="translate(0.75 0.276367)"/>
</clipPath>
</defs>
</svg>
